<svg id="SvgjsSvg1017" xmlns="http://www.w3.org/2000/svg" version="1.1" xmlns:xlink="http://www.w3.org/1999/xlink" xmlns:svgjs="http://svgjs.com/svgjs" width="12" height="12" viewBox="0 0 12 12"><title></title><desc>Created with Avocode.</desc><defs id="SvgjsDefs1018"></defs><path id="SvgjsPath1019" d="M785.64 1679.14C785.64 1679.41 785.43 1679.6200000000001 785.16 1679.6200000000001H776.81C776.55 1679.6200000000001 776.3399999999999 1679.41 776.3399999999999 1679.14V1674.0800000000002H777.4399999999999C777.3399999999999 1674.4 777.28 1674.7500000000002 777.28 1675.1000000000001C777.28 1677.1000000000001 778.9499999999999 1678.72 781.01 1678.72C783.0699999999999 1678.72 784.74 1677.1000000000001 784.74 1675.1000000000001C784.74 1674.7500000000002 784.69 1674.4 784.59 1674.0800000000002H785.64ZM781.01 1677.31C779.68 1677.31 778.6 1676.27 778.6 1674.98C778.6 1673.69 779.6800000000001 1672.64 781.01 1672.64C782.34 1672.64 783.42 1673.69 783.42 1674.98C783.42 1676.27 782.3399999999999 1677.31 781.01 1677.31ZM785.64 1672.16C785.64 1672.46 785.4 1672.7 785.1 1672.7H783.74C783.45 1672.7 783.2 1672.46 783.2 1672.16V1670.88C783.2 1670.5800000000002 783.45 1670.3400000000001 783.74 1670.3400000000001H785.1C785.4 1670.3400000000001 785.64 1670.5800000000002 785.64 1670.88ZM787 1670.54C787 1669.7 786.3 1669 785.46 1669H776.5400000000001C775.7 1669 775.0000000000001 1669.7 775.0000000000001 1670.54V1679.46C775.0000000000001 1680.3 775.7000000000002 1681 776.5400000000001 1681H785.46C786.3000000000001 1681 787 1680.3 787 1679.46Z " fill-opacity="1" transform="matrix(1,0,0,1,-775,-1669)"></path></svg>