<svg id="SvgjsSvg1008" xmlns="http://www.w3.org/2000/svg" version="1.1" xmlns:xlink="http://www.w3.org/1999/xlink" xmlns:svgjs="http://svgjs.com/svgjs" width="22" height="22" viewBox="0 0 22 22"><title>Fill 1</title><defs id="SvgjsDefs1009"></defs><path id="SvgjsPath1010" d="M234 28.94V39.82L244.49 39.660000000000004C244.84 39.660000000000004 245.16 39.53 245.38 39.300000000000004C245.54999999999998 39.13 245.64 38.900000000000006 245.64 38.68000000000001C245.63 38.31000000000001 245.38 37.99000000000001 244.98999999999998 37.82000000000001C244.76999999999998 37.730000000000004 244.64999999999998 37.50000000000001 244.68999999999997 37.28000000000001C244.73999999999998 37.05000000000001 244.93999999999997 36.88000000000001 245.16999999999996 36.88000000000001L245.65999999999997 36.87000000000001C246.00999999999996 36.87000000000001 246.32999999999996 36.73000000000001 246.54999999999995 36.51000000000001C246.71999999999994 36.33000000000001 246.81999999999996 36.110000000000014 246.80999999999995 35.88000000000001C246.80999999999995 35.47000000000001 246.47999999999993 35.11000000000001 246.00999999999993 34.98000000000001C245.77999999999994 34.91000000000001 245.62999999999994 34.70000000000001 245.64999999999992 34.46000000000001C245.66999999999993 34.220000000000006 245.85999999999993 34.040000000000006 246.0999999999999 34.02000000000001C246.6999999999999 33.97000000000001 247.1599999999999 33.53000000000001 247.14999999999992 33.04000000000001C247.13999999999993 32.570000000000014 246.73999999999992 32.170000000000016 246.17999999999992 32.100000000000016C245.9399999999999 32.06000000000002 245.75999999999993 31.850000000000016 245.75999999999993 31.610000000000017C245.75999999999993 31.37000000000002 245.93999999999994 31.160000000000018 246.17999999999992 31.12000000000002C246.74999999999991 31.04000000000002 247.1599999999999 30.63000000000002 247.14999999999992 30.15000000000002C247.13999999999993 29.62000000000002 246.61999999999992 29.20000000000002 245.97999999999993 29.20000000000002H245.95999999999992L242.57999999999993 29.25000000000002H239.40999999999994C239.22999999999993 29.25000000000002 239.05999999999995 29.15000000000002 238.96999999999994 28.99000000000002C238.87999999999994 28.84000000000002 238.88999999999993 28.65000000000002 238.97999999999993 28.50000000000002L240.37999999999994 26.300000000000022L242.18999999999994 23.400000000000023C242.31999999999994 23.190000000000023 242.35999999999993 22.950000000000024 242.28999999999994 22.73000000000002C242.20999999999992 22.47000000000002 242.01999999999992 22.25000000000002 241.73999999999992 22.11000000000002C241.55999999999992 22.030000000000022 241.35999999999993 21.98000000000002 241.1599999999999 21.98000000000002C240.7199999999999 21.98000000000002 240.3199999999999 22.18000000000002 240.11999999999992 22.510000000000023C240.0999999999999 22.540000000000024 240.07999999999993 22.560000000000024 240.04999999999993 22.59000000000002ZM233.5 40.81C233.37 40.81 233.24 40.760000000000005 233.15 40.67C233.05 40.58 233 40.45 233 40.32V28.740000000000002C233 28.62 233.05 28.500000000000004 233.14 28.410000000000004L239.29 21.950000000000003C239.67999999999998 21.360000000000003 240.39 21.000000000000004 241.16 21.000000000000004C241.51 21.000000000000004 241.85999999999999 21.080000000000002 242.18 21.230000000000004C242.70000000000002 21.480000000000004 243.1 21.930000000000003 243.25 22.450000000000003C243.4 22.950000000000003 243.32 23.470000000000002 243.04 23.92L240.31 28.26H242.58L245.98000000000002 28.21C247.16000000000003 28.21 248.13000000000002 29.07 248.15 30.130000000000003C248.16 30.71 247.89000000000001 31.240000000000002 247.45000000000002 31.610000000000003C247.87 31.960000000000004 248.14000000000001 32.46 248.15 33.02C248.16 33.660000000000004 247.82 34.25 247.28 34.620000000000005C247.61 34.95 247.8 35.39000000000001 247.81 35.86000000000001C247.82 36.36000000000001 247.63 36.830000000000005 247.27 37.190000000000005C247.02 37.440000000000005 246.71 37.63 246.37 37.74C246.54 38.010000000000005 246.63 38.330000000000005 246.64000000000001 38.660000000000004C246.65 39.150000000000006 246.46 39.620000000000005 246.10000000000002 39.99C245.69000000000003 40.4 245.11 40.64 244.51000000000002 40.64L233.51000000000002 40.81Z " fill="#e0cec5" fill-opacity="1" transform="matrix(1,0,0,1,-227,-21)"></path><path id="SvgjsPath1011" d="M228.95 27C227.83999999999997 27 227 28.09 227 29.55V39.85C227 41.300000000000004 227.84 42.4 228.95 42.4H231.95999999999998C233.07999999999998 42.4 233.92 41.3 233.92 39.85V29.55C233.92 28.09 233.07999999999998 27 231.95999999999998 27Z " fill="#e0cec5" fill-opacity="1" transform="matrix(1,0,0,1,-227,-21)"></path></svg>