<svg id="SvgjsSvg1063" xmlns="http://www.w3.org/2000/svg" version="1.1" xmlns:xlink="http://www.w3.org/1999/xlink" xmlns:svgjs="http://svgjs.com/svgjs" width="30" height="29" viewBox="0 0 30 29"><title>_</title><defs id="SvgjsDefs1064"></defs><path id="SvgjsPath1065" d="M20.2 17.21C20.2 17.14 20.189999999999998 17.080000000000002 20.169999999999998 17.02C19.979999999999997 16.79 19.74 16.63 19.459999999999997 16.53C18.919999999999998 16.240000000000002 18.379999999999995 15.950000000000001 17.859999999999996 15.65C17.619999999999997 15.44 17.329999999999995 15.3 17.019999999999996 15.23C16.449999999999996 15.23 15.619999999999996 16.89 15.109999999999996 16.89C14.819999999999997 16.830000000000002 14.539999999999996 16.7 14.299999999999995 16.53C12.669999999999995 15.680000000000001 11.339999999999996 14.370000000000001 10.469999999999995 12.780000000000001C10.289999999999996 12.540000000000001 10.159999999999995 12.270000000000001 10.099999999999996 11.990000000000002C10.099999999999996 11.500000000000002 11.799999999999995 10.670000000000002 11.799999999999995 10.110000000000003C11.729999999999995 9.810000000000002 11.579999999999995 9.530000000000003 11.369999999999996 9.300000000000002C11.059999999999995 8.780000000000003 10.769999999999996 8.260000000000002 10.469999999999995 7.730000000000002C10.369999999999996 7.460000000000003 10.199999999999996 7.220000000000002 9.969999999999995 7.030000000000002C9.909999999999995 7.0100000000000025 9.839999999999995 7.000000000000002 9.779999999999996 7.000000000000002C9.329999999999997 7.030000000000002 8.889999999999995 7.120000000000002 8.469999999999995 7.290000000000002C8.029999999999996 7.550000000000002 7.679999999999995 7.940000000000002 7.479999999999995 8.400000000000002C7.1699999999999955 8.920000000000002 7.009999999999995 9.510000000000002 6.999999999999995 10.110000000000003C7.069999999999995 10.950000000000003 7.289999999999995 11.760000000000003 7.649999999999995 12.520000000000003C7.849999999999995 13.080000000000004 8.109999999999996 13.620000000000003 8.419999999999995 14.130000000000003C9.599999999999994 15.880000000000003 11.129999999999995 17.380000000000003 12.919999999999995 18.53C13.439999999999994 18.84 13.989999999999995 19.1 14.569999999999995 19.3C15.339999999999995 19.650000000000002 16.169999999999995 19.86 17.019999999999996 19.92C17.629999999999995 19.92 18.229999999999997 19.76 18.769999999999996 19.46C19.239999999999995 19.26 19.639999999999997 18.92 19.909999999999997 18.48C20.08 18.080000000000002 20.169999999999998 17.650000000000002 20.199999999999996 17.21Z " fill="#f0c827" fill-opacity="1" transform="matrix(1,0,0,1,1,1)"></path><path id="SvgjsPath1066" d="M0 13.5C0 6.04416 6.26801 0 14 0C21.73199 0 28 6.04416 28 13.5C28 20.955840000000002 21.73199 27 14 27C6.26801 27 0 20.955840000000002 0 13.5Z " fill-opacity="0" fill="#ffffff" stroke-dasharray="0" stroke-linejoin="miter" stroke-linecap="butt" stroke-opacity="1" stroke="#ffd427" stroke-miterlimit="50" stroke-width="2" transform="matrix(1,0,0,1,1,1)"></path></svg>