<svg id="SvgjsSvg1014" xmlns="http://www.w3.org/2000/svg" version="1.1" xmlns:xlink="http://www.w3.org/1999/xlink" xmlns:svgjs="http://svgjs.com/svgjs" width="16" height="10" viewBox="0 0 16 10"><defs id="SvgjsDefs1015"></defs><path id="SvgjsPath1016" d="M736.2 1671.39L733.95 1671.41C733.7700000000001 1671.38 733.6500000000001 1671.46 733.6500000000001 1671.46C733.6500000000001 1671.46 733.5200000000001 1671.53 733.45 1671.7C733.09 1672.64 732.62 1673.46 732.62 1673.46C731.62 1675.16 731.21 1675.25 731.05 1675.14C730.66 1674.9 730.77 1674.16 730.77 1673.63C730.77 1671.97 731.02 1671.2800000000002 730.27 1671.1000000000001C730.03 1671.0500000000002 729.85 1671.0100000000002 729.22 1671.0000000000002C728.4100000000001 1670.9900000000002 727.73 1671.0000000000002 727.35 1671.1900000000003C727.09 1671.3100000000002 726.9 1671.6000000000004 727.02 1671.6100000000004C727.16 1671.6300000000003 727.5 1671.7100000000003 727.68 1671.9500000000003C727.68 1671.9500000000003 727.87 1672.2700000000002 727.91 1672.9700000000003C727.99 1674.9200000000003 727.5899999999999 1675.1600000000003 727.5899999999999 1675.1600000000003C727.29 1675.3200000000004 726.7599999999999 1675.0500000000004 725.9799999999999 1673.4400000000003C725.9799999999999 1673.4400000000003 725.5199999999999 1672.6400000000003 725.17 1671.7700000000002C725.11 1671.6000000000001 724.9799999999999 1671.5200000000002 724.9799999999999 1671.5200000000002C724.9799999999999 1671.5200000000002 724.8399999999999 1671.4100000000003 724.6399999999999 1671.38L722.4999999999999 1671.39C722.1699999999998 1671.39 722.0499999999998 1671.5400000000002 722.0499999999998 1671.5400000000002C722.0499999999998 1671.5400000000002 721.9399999999998 1671.6700000000003 722.0499999999998 1671.9200000000003C723.7199999999998 1675.8500000000004 725.6199999999999 1677.8200000000004 725.6199999999999 1677.8200000000004C725.6199999999999 1677.8200000000004 727.3699999999999 1679.6400000000003 729.3399999999999 1679.5200000000004H730.2399999999999C730.5199999999999 1679.4900000000005 730.6599999999999 1679.3500000000004 730.6599999999999 1679.3500000000004C730.6599999999999 1679.3500000000004 730.7799999999999 1679.2100000000003 730.7699999999999 1678.9500000000003C730.7599999999999 1677.7400000000002 731.3199999999998 1677.5600000000002 731.3199999999998 1677.5600000000002C731.8699999999998 1677.39 732.5699999999998 1678.7300000000002 733.3199999999998 1679.2400000000002C733.3199999999998 1679.2400000000002 733.8899999999999 1679.6300000000003 734.3199999999998 1679.5500000000002L736.3199999999998 1679.5200000000002C737.3699999999998 1679.5100000000002 736.8699999999998 1678.63 736.8699999999998 1678.63C736.8399999999998 1678.5600000000002 736.5899999999998 1678.0300000000002 735.3799999999998 1676.91C734.1299999999998 1675.74 734.2999999999997 1675.93 735.8099999999997 1673.92C736.7299999999997 1672.69 737.0999999999997 1671.94 736.9799999999997 1671.6200000000001C736.9799999999997 1671.6200000000001 736.8699999999997 1671.3100000000002 736.1999999999997 1671.39Z " fill-opacity="1" transform="matrix(1,0,0,1,-722,-1670)"></path></svg>